<?xml version="1.0" encoding="UTF-8" standalone="no"?>
<!DOCTYPE svg PUBLIC "-//W3C//DTD SVG 1.1//EN" "http://www.w3.org/Graphics/SVG/1.1/DTD/svg11.dtd">
<svg width="100%" height="100%" viewBox="0 0 6917 2724" version="1.1" xmlns="http://www.w3.org/2000/svg" xmlns:xlink="http://www.w3.org/1999/xlink" xml:space="preserve" xmlns:serif="http://www.serif.com/" style="fill-rule:evenodd;clip-rule:evenodd;stroke-linejoin:round;stroke-miterlimit:2;">
    <g transform="matrix(1,0,0,1,-1508.23,-3694.73)">
        <path d="M7246.23,4818.99C6796.06,4930.18 6537.83,5145.18 6537.83,5468.75C6537.83,5792.32 6796.06,6007.32 7246.23,6118.51L7246.23,6418.63L2742.19,6418.63L2742.19,6364.55C3025.86,6359.76 3090.46,6256.83 3090.46,6005.31L3090.46,5163.29C3090.46,4904.87 2988.38,4697.82 2742.19,4613.58L2742.19,4518.87L7246.23,4518.87L7246.23,4818.99ZM5702.37,5084.43C5702.37,4892.72 5546.73,4737.08 5355.03,4737.08L4513.84,4737.08C4322.14,4737.08 4166.5,4892.72 4166.5,5084.43L4166.5,5779.11C4166.5,5970.82 4322.14,6126.46 4513.84,6126.46L5355.03,6126.46C5546.73,6126.46 5702.37,5970.82 5702.37,5779.11L5702.37,5084.43Z" style="fill:rgb(243,197,57);"/>
    </g>
    <g transform="matrix(1,0,0,1,-1432.97,-3188.84)">
        <path d="M1548,4012.99L1548,4379.62L2685.27,4379.62C2894.08,4379.62 2976.89,4494.92 2976.89,4642.63L2976.89,4786.75L2073.22,4786.75C1605.51,4786.75 1432.97,4987.98 1432.97,5333.57C1432.97,5693.48 1619.89,5912.75 2069.62,5912.75L2958.89,5912.75C3278.83,5912.75 3350.73,5804.91 3350.73,5531.7L3350.73,4639.03C3350.73,4278.98 3163.81,4012.99 2688.87,4012.99L1548,4012.99ZM2872.48,5542.51L2073.22,5542.51C1882.41,5542.51 1806.81,5452.45 1806.81,5311.95C1806.81,5171.46 1878.81,5088.6 2080.43,5088.6L2976.89,5088.6L2976.89,5445.24C2976.89,5513.69 2948.09,5542.51 2872.48,5542.51Z" style="fill-rule:nonzero;"/>
        <path d="M3891.01,3188.84L3891.01,5099.68C3891.01,5646.75 4131.85,5912.75 4588.85,5912.75L5114.48,5912.75C5618.39,5912.75 5934.73,5603.62 5934.73,4962.87C5934.73,4322.11 5618.39,4012.99 5114.48,4012.99L4272.04,4012.99L4272.04,3188.84L3891.01,3188.84ZM5074.87,4379.62C5406.09,4379.62 5550.09,4552.44 5550.09,4962.87C5550.09,5373.3 5406.09,5542.51 5074.87,5542.51L4700.46,5542.51C4390.85,5542.51 4272.04,5405.7 4272.04,5081.68L4272.04,4379.62L5074.87,4379.62Z" style="fill-rule:nonzero;"/>
        <path d="M7126.11,4012.99C6618.59,4012.99 6302.26,4322.11 6302.26,4962.87C6302.26,5603.62 6618.59,5912.75 7126.11,5912.75L7525.73,5912.75C8029.65,5912.75 8349.58,5603.62 8349.58,4962.87C8349.58,4322.11 8029.65,4012.99 7525.73,4012.99L7126.11,4012.99ZM7489.72,4379.62C7817.34,4379.62 7964.95,4552.44 7964.95,4962.87C7964.95,5373.3 7817.34,5542.51 7489.72,5542.51L7162.11,5542.51C6830.9,5542.51 6686.89,5373.3 6686.89,4962.87C6686.89,4552.44 6830.9,4379.62 7162.11,4379.62L7489.72,4379.62Z" style="fill-rule:nonzero;"/>
    </g>
</svg>
