<?xml version="1.0" encoding="UTF-8" standalone="no"?>
<!DOCTYPE svg PUBLIC "-//W3C//DTD SVG 1.1//EN" "http://www.w3.org/Graphics/SVG/1.1/DTD/svg11.dtd">
<svg width="100%" height="100%" viewBox="0 0 3183 3183" version="1.1" xmlns="http://www.w3.org/2000/svg" xmlns:xlink="http://www.w3.org/1999/xlink" xml:space="preserve" xmlns:serif="http://www.serif.com/" style="fill-rule:evenodd;clip-rule:evenodd;stroke-linejoin:round;stroke-miterlimit:2;">
    <g transform="matrix(2.57325,0,0,2.16043,-7914.75,-6986.23)">
        <rect x="3075.78" y="3233.73" width="217.148" height="736.429"/>
    </g>
    <g transform="matrix(2.57325,0,0,2.16043,-5291.52,-5395.23)">
        <rect x="3075.78" y="3233.73" width="217.148" height="736.429"/>
    </g>
    <g transform="matrix(2.57325,0,0,2.57325,-7914.75,-8625.2)">
        <path d="M3694.07,3351.87C4035.31,3351.87 4312.35,3628.91 4312.35,3970.16C4312.35,4311.4 4035.31,4588.44 3694.07,4588.44C3352.83,4588.44 3075.78,4311.4 3075.78,3970.16C3075.78,3628.91 3352.83,3351.87 3694.07,3351.87ZM3694.07,3592.83C3902.32,3592.83 4071.39,3761.9 4071.39,3970.16C4071.39,4178.41 3902.32,4347.48 3694.07,4347.48C3485.81,4347.48 3316.74,4178.41 3316.74,3970.16C3316.74,3761.9 3485.81,3592.83 3694.07,3592.83Z" style="fill:rgb(28,175,215);"/>
    </g>
</svg>
