<?xml version="1.0" encoding="UTF-8" standalone="no"?>
<!DOCTYPE svg PUBLIC "-//W3C//DTD SVG 1.1//EN" "http://www.w3.org/Graphics/SVG/1.1/DTD/svg11.dtd">
<svg width="100%" height="100%" viewBox="0 0 5863 1975" version="1.1" xmlns="http://www.w3.org/2000/svg" xmlns:xlink="http://www.w3.org/1999/xlink" xml:space="preserve" xmlns:serif="http://www.serif.com/" style="fill-rule:evenodd;clip-rule:evenodd;stroke-linejoin:round;stroke-miterlimit:2;">
    <g transform="matrix(0.371352,0,0,0.371352,3251.32,169.995)">
        <circle cx="6507.97" cy="4336.45" r="523.803" style="fill:rgb(28,175,215);"/>
    </g>
    <g transform="matrix(1,0,0,1,-1144.74,-2748.31)">
        <path d="M1981.54,3049.56C2097.58,3049.56 2206.92,3071.32 2309.57,3114.83C2412.22,3158.34 2500.92,3217.48 2575.67,3292.23C2650.43,3366.99 2709.56,3455.69 2753.07,3558.34C2796.59,3660.98 2818.34,3770.33 2818.34,3886.36L2818.34,4723.17L2650.98,4723.17L2650.98,4388.44C2575.11,4488.86 2478.04,4569.75 2359.78,4631.12C2241.51,4692.48 2115.43,4723.17 1981.54,4723.17C1863.27,4723.17 1753.37,4701.41 1651.84,4657.9C1550.31,4614.38 1462.16,4555.25 1387.41,4480.49C1312.65,4405.74 1253.52,4317.6 1210.01,4216.06C1166.49,4114.53 1144.74,4004.63 1144.74,3886.36C1144.74,3770.33 1166.49,3660.98 1210.01,3558.34C1253.52,3455.69 1312.65,3366.99 1387.41,3292.23C1462.16,3217.48 1550.31,3158.34 1651.84,3114.83C1753.37,3071.32 1863.27,3049.56 1981.54,3049.56ZM1981.54,4555.81C2073.03,4555.81 2159.5,4537.95 2240.95,4502.25C2322.4,4466.55 2393.25,4418.57 2453.5,4358.32C2513.75,4298.07 2561.72,4227.22 2597.43,4145.77C2633.13,4064.32 2650.98,3977.85 2650.98,3886.36C2650.98,3794.87 2633.13,3708.4 2597.43,3626.95C2561.72,3545.51 2513.75,3474.66 2453.5,3414.41C2393.25,3354.16 2322.4,3306.18 2240.95,3270.48C2159.5,3234.77 2073.03,3216.92 1981.54,3216.92C1890.05,3216.92 1803.58,3234.77 1722.13,3270.48C1640.68,3306.18 1569.83,3354.16 1509.58,3414.41C1449.33,3474.66 1401.36,3545.51 1365.65,3626.95C1329.95,3708.4 1312.1,3794.87 1312.1,3886.36C1312.1,3977.85 1329.95,4064.32 1365.65,4145.77C1401.36,4227.22 1449.33,4298.07 1509.58,4358.32C1569.83,4418.57 1640.68,4466.55 1722.13,4502.25C1803.58,4537.95 1890.05,4555.81 1981.54,4555.81Z" style="fill:rgb(28,175,215);fill-rule:nonzero;"/>
        <path d="M3855.98,3049.56C3972.02,3049.56 4081.36,3071.32 4184.01,3114.83C4286.65,3158.34 4375.36,3217.48 4450.11,3292.23C4524.86,3366.99 4584,3455.69 4627.51,3558.34C4671.03,3660.98 4692.78,3770.33 4692.78,3886.36C4692.78,4004.63 4671.03,4114.53 4627.51,4216.06C4584,4317.6 4524.86,4405.74 4450.11,4480.49C4375.36,4555.25 4286.65,4614.38 4184.01,4657.9C4081.36,4701.41 3972.02,4723.17 3855.98,4723.17C3737.71,4723.17 3627.81,4701.41 3526.28,4657.9C3424.75,4614.38 3336.6,4555.25 3261.85,4480.49C3187.1,4405.74 3127.96,4317.6 3084.45,4216.06C3040.93,4114.53 3019.18,4004.63 3019.18,3886.36L3019.18,2748.31L3186.54,2748.31L3186.54,3384.28C3262.41,3283.86 3359.48,3202.97 3477.74,3141.61C3596.01,3080.24 3722.09,3049.56 3855.98,3049.56ZM3855.98,4555.81C3947.47,4555.81 4033.94,4537.95 4115.39,4502.25C4196.84,4466.55 4267.69,4418.57 4327.94,4358.32C4388.19,4298.07 4436.16,4227.22 4471.87,4145.77C4507.57,4064.32 4525.42,3977.85 4525.42,3886.36C4525.42,3794.87 4507.57,3708.4 4471.87,3626.95C4436.16,3545.51 4388.19,3474.66 4327.94,3414.41C4267.69,3354.16 4196.84,3306.18 4115.39,3270.48C4033.94,3234.77 3947.47,3216.92 3855.98,3216.92C3764.49,3216.92 3678.02,3234.77 3596.57,3270.48C3515.12,3306.18 3444.27,3354.16 3384.02,3414.41C3323.77,3474.66 3275.8,3545.51 3240.09,3626.95C3204.39,3708.4 3186.54,3794.87 3186.54,3886.36C3186.54,3977.85 3204.39,4064.32 3240.09,4145.77C3275.8,4227.22 3323.77,4298.07 3384.02,4358.32C3444.27,4418.57 3515.12,4466.55 3596.57,4502.25C3678.02,4537.95 3764.49,4555.81 3855.98,4555.81Z" style="fill-rule:nonzero;"/>
        <path d="M5730.42,3049.56C5844.23,3049.56 5951.34,3071.32 6051.75,3114.83C6152.17,3158.34 6240.87,3217.48 6317.86,3292.23C6394.84,3366.99 6455.65,3455.69 6500.28,3558.34C6544.91,3660.98 6567.22,3770.33 6567.22,3886.36C6567.22,4004.63 6544.91,4114.53 6500.28,4216.06C6455.65,4317.6 6394.84,4405.74 6317.86,4480.49C6240.87,4555.25 6152.17,4614.38 6051.75,4657.9C5951.34,4701.41 5844.23,4723.17 5730.42,4723.17C5612.15,4723.17 5502.25,4701.41 5400.72,4657.9C5299.19,4614.38 5211.04,4555.25 5136.29,4480.49C5061.53,4405.74 5002.4,4317.6 4958.89,4216.06C4915.37,4114.53 4893.62,4004.63 4893.62,3886.36C4893.62,3770.33 4915.37,3660.98 4958.89,3558.34C5002.4,3455.69 5061.53,3366.99 5136.29,3292.23C5211.04,3217.48 5299.19,3158.34 5400.72,3114.83C5502.25,3071.32 5612.15,3049.56 5730.42,3049.56ZM5730.42,4555.81C5821.91,4555.81 5908.38,4537.95 5989.83,4502.25C6071.28,4466.55 6142.13,4418.57 6202.38,4358.32C6262.63,4298.07 6310.6,4227.22 6346.31,4145.77C6382.01,4064.32 6399.86,3977.85 6399.86,3886.36C6399.86,3794.87 6382.01,3708.4 6346.31,3626.95C6310.6,3545.51 6262.63,3474.66 6202.38,3414.41C6142.13,3354.16 6071.28,3306.18 5989.83,3270.48C5908.38,3234.77 5821.91,3216.92 5730.42,3216.92C5638.93,3216.92 5552.46,3234.77 5471.01,3270.48C5389.56,3306.18 5318.71,3354.16 5258.46,3414.41C5198.21,3474.66 5150.24,3545.51 5114.53,3626.95C5078.83,3708.4 5060.98,3794.87 5060.98,3886.36C5060.98,3977.85 5078.83,4064.32 5114.53,4145.77C5150.24,4227.22 5198.21,4298.07 5258.46,4358.32C5318.71,4418.57 5389.56,4466.55 5471.01,4502.25C5552.46,4537.95 5638.93,4555.81 5730.42,4555.81Z" style="fill-rule:nonzero;"/>
    </g>
</svg>
