<?xml version="1.0" encoding="UTF-8" standalone="no"?>
<!DOCTYPE svg PUBLIC "-//W3C//DTD SVG 1.1//EN" "http://www.w3.org/Graphics/SVG/1.1/DTD/svg11.dtd">
<svg width="100%" height="100%" viewBox="0 0 3812 1368" version="1.1" xmlns="http://www.w3.org/2000/svg" xmlns:xlink="http://www.w3.org/1999/xlink" xml:space="preserve" xmlns:serif="http://www.serif.com/" style="fill-rule:evenodd;clip-rule:evenodd;stroke-linejoin:round;stroke-miterlimit:2;">
    <g transform="matrix(1,0,0,1,-1486.57,-2373.59)">
        <path d="M1508.86,3054.99L1666.43,3054.99C1721.21,3054.99 1761.16,3067.72 1786.3,3093.18C1811.43,3118.63 1824,3157.78 1824,3210.63L1824,3252.2C1824,3322.44 1800.8,3366.91 1754.4,3385.6L1754.4,3387.53C1780.17,3395.26 1798.38,3411.05 1809.01,3434.89C1819.65,3458.74 1824.96,3490.64 1824.96,3530.6L1824.96,3649.49C1824.96,3668.83 1825.61,3684.46 1826.9,3696.38C1828.18,3708.3 1831.41,3720.06 1836.56,3731.66L1728.3,3731.66C1724.43,3720.71 1721.85,3710.39 1720.56,3700.73C1719.27,3691.06 1718.63,3673.66 1718.63,3648.53L1718.63,3524.8C1718.63,3493.86 1713.63,3472.27 1703.65,3460.03C1693.66,3447.78 1676.42,3441.66 1651.93,3441.66L1615.2,3441.66L1615.2,3731.66L1508.86,3731.66L1508.86,3054.99ZM1653.86,3344.99C1675.13,3344.99 1691.08,3339.52 1701.71,3328.56C1712.35,3317.61 1717.66,3299.24 1717.66,3273.46L1717.66,3221.26C1717.66,3196.77 1713.31,3179.05 1704.61,3168.1C1695.91,3157.14 1682.22,3151.66 1663.53,3151.66L1615.2,3151.66L1615.2,3344.99L1653.86,3344.99Z" style="fill:rgb(12,102,131);fill-rule:nonzero;"/>
        <path d="M1898.43,3054.99L2188.43,3054.99L2188.43,3151.66L2004.76,3151.66L2004.76,3330.49L2150.73,3330.49L2150.73,3427.16L2004.76,3427.16L2004.76,3634.99L2188.43,3634.99L2188.43,3731.66L1898.43,3731.66L1898.43,3054.99Z" style="fill:rgb(12,102,131);fill-rule:nonzero;"/>
        <path d="M2400.13,3741.33C2348.57,3741.33 2309.26,3726.67 2282.2,3697.35C2255.13,3668.02 2241.6,3625.97 2241.6,3571.2L2241.6,3215.46C2241.6,3160.68 2255.13,3118.63 2282.2,3089.31C2309.26,3059.99 2348.57,3045.33 2400.13,3045.33C2451.68,3045.33 2491,3059.99 2518.06,3089.31C2545.13,3118.63 2558.66,3160.68 2558.66,3215.46L2558.66,3273.46L2458.13,3273.46L2458.13,3208.7C2458.13,3164.23 2439.76,3141.99 2403.03,3141.99C2366.3,3141.99 2347.93,3164.23 2347.93,3208.7L2347.93,3578.93C2347.93,3622.75 2366.3,3644.66 2403.03,3644.66C2439.76,3644.66 2458.13,3622.75 2458.13,3578.93L2458.13,3446.49L2404.96,3446.49L2404.96,3349.83L2558.66,3349.83L2558.66,3571.2C2558.66,3625.97 2545.13,3668.02 2518.06,3697.35C2491,3726.67 2451.68,3741.33 2400.13,3741.33Z" style="fill:rgb(12,102,131);fill-rule:nonzero;"/>
        <path d="M2627.3,3054.99L2733.63,3054.99L2733.63,3634.99L2908.6,3634.99L2908.6,3731.66L2627.3,3731.66L2627.3,3054.99Z" style="fill:rgb(12,102,131);fill-rule:nonzero;"/>
        <path d="M3045.86,3054.99L3189.9,3054.99L3300.1,3731.66L3193.76,3731.66L3174.43,3597.3L3174.43,3599.23L3053.6,3599.23L3034.26,3731.66L2935.66,3731.66L3045.86,3054.99ZM3161.86,3507.39L3114.5,3172.93L3112.56,3172.93L3066.16,3507.39L3161.86,3507.39Z" style="fill:rgb(12,102,131);fill-rule:nonzero;"/>
        <path d="M3351.33,3054.99L3503.1,3054.99L3570.76,3539.3L3572.7,3539.3L3640.36,3054.99L3792.13,3054.99L3792.13,3731.66L3691.6,3731.66L3691.6,3219.33L3689.66,3219.33L3612.33,3731.66L3523.4,3731.66L3446.06,3219.33L3444.13,3219.33L3444.13,3731.66L3351.33,3731.66L3351.33,3054.99Z" style="fill:rgb(12,102,131);fill-rule:nonzero;"/>
        <path d="M3871.4,3054.99L4161.4,3054.99L4161.4,3151.66L3977.73,3151.66L3977.73,3330.49L4123.7,3330.49L4123.7,3427.16L3977.73,3427.16L3977.73,3634.99L4161.4,3634.99L4161.4,3731.66L3871.4,3731.66L3871.4,3054.99Z" style="fill:rgb(12,102,131);fill-rule:nonzero;"/>
        <path d="M4222.3,3054.99L4355.7,3054.99L4459.13,3460.03L4461.06,3460.03L4461.06,3054.99L4555.8,3054.99L4555.8,3731.66L4446.56,3731.66L4318.96,3237.7L4317.03,3237.7L4317.03,3731.66L4222.3,3731.66L4222.3,3054.99Z" style="fill:rgb(12,102,131);fill-rule:nonzero;"/>
        <path d="M4718.2,3151.66L4607.03,3151.66L4607.03,3054.99L4935.7,3054.99L4935.7,3151.66L4824.53,3151.66L4824.53,3731.66L4718.2,3731.66L4718.2,3151.66Z" style="fill:rgb(12,102,131);fill-rule:nonzero;"/>
        <path d="M5136.76,3741.33C5084.56,3741.33 5044.61,3726.51 5016.9,3696.86C4989.19,3667.22 4975.33,3625.33 4975.33,3571.2L4975.33,3215.46C4975.33,3161.33 4989.19,3119.44 5016.9,3089.8C5044.61,3060.15 5084.56,3045.33 5136.76,3045.33C5188.96,3045.33 5228.92,3060.15 5256.63,3089.8C5284.34,3119.44 5298.2,3161.33 5298.2,3215.46L5298.2,3571.2C5298.2,3625.33 5284.34,3667.22 5256.63,3696.86C5228.92,3726.51 5188.96,3741.33 5136.76,3741.33ZM5136.76,3644.66C5173.5,3644.66 5191.86,3622.43 5191.86,3577.96L5191.86,3208.7C5191.86,3164.23 5173.5,3141.99 5136.76,3141.99C5100.03,3141.99 5081.66,3164.23 5081.66,3208.7L5081.66,3577.96C5081.66,3622.43 5100.03,3644.66 5136.76,3644.66Z" style="fill:rgb(12,102,131);fill-rule:nonzero;"/>
    </g>
    <g transform="matrix(1.22113,0,0,1.22113,-362.352,-1646.78)">
        <path d="M296.735,1438.4L392.412,1438.4L435.07,1716.24L436.289,1716.24L478.948,1438.4L574.625,1438.4L574.625,1826.6L511.246,1826.6L511.246,1532.68L510.027,1532.68L461.275,1826.6L405.209,1826.6L356.457,1532.68L355.238,1532.68L355.238,1826.6L296.735,1826.6L296.735,1438.4Z" style="fill:rgb(34,34,34);fill-rule:nonzero;"/>
        <path d="M721.492,1832.14C688.584,1832.14 663.395,1823.64 645.925,1806.63C628.456,1789.63 619.721,1765.6 619.721,1734.54L619.721,1530.46C619.721,1499.41 628.456,1475.38 645.925,1458.37C663.395,1441.36 688.584,1432.86 721.492,1432.86C754.4,1432.86 779.589,1441.36 797.059,1458.37C814.528,1475.38 823.263,1499.41 823.263,1530.46L823.263,1734.54C823.263,1765.6 814.528,1789.63 797.059,1806.63C779.589,1823.64 754.4,1832.14 721.492,1832.14ZM721.492,1776.69C744.65,1776.69 756.228,1763.93 756.228,1738.42L756.228,1526.58C756.228,1501.07 744.65,1488.32 721.492,1488.32C698.334,1488.32 686.756,1501.07 686.756,1526.58L686.756,1738.42C686.756,1763.93 698.334,1776.69 721.492,1776.69Z" style="fill:rgb(34,34,34);fill-rule:nonzero;"/>
        <path d="M868.359,1438.4L970.74,1438.4C1004.05,1438.4 1029.04,1446.54 1045.7,1462.81C1062.35,1479.07 1070.68,1502.92 1070.68,1534.34L1070.68,1730.66C1070.68,1762.08 1062.35,1785.93 1045.7,1802.2C1029.04,1818.46 1004.05,1826.6 970.74,1826.6L868.359,1826.6L868.359,1438.4ZM969.521,1771.14C980.49,1771.14 988.921,1768.18 994.812,1762.27C1000.7,1756.35 1003.65,1746.74 1003.65,1733.43L1003.65,1531.57C1003.65,1518.26 1000.7,1508.65 994.812,1502.73C988.921,1496.82 980.49,1493.86 969.521,1493.86L935.394,1493.86L935.394,1771.14L969.521,1771.14Z" style="fill:rgb(34,34,34);fill-rule:nonzero;"/>
        <rect x="1115.78" y="1438.4" width="67.035" height="388.193" style="fill:rgb(34,34,34);fill-rule:nonzero;"/>
        <path d="M1232.79,1438.4L1410.12,1438.4L1410.12,1493.86L1299.82,1493.86L1299.82,1602L1386.36,1602L1386.36,1657.46L1299.82,1657.46L1299.82,1826.6L1232.79,1826.6L1232.79,1438.4Z" style="fill:rgb(34,34,34);fill-rule:nonzero;"/>
        <rect x="1442.42" y="1438.4" width="67.035" height="388.193" style="fill:rgb(34,34,34);fill-rule:nonzero;"/>
        <path d="M1653.89,1832.14C1621.79,1832.14 1597.31,1823.83 1580.45,1807.19C1563.59,1790.55 1555.16,1767.07 1555.16,1736.76L1555.16,1528.24C1555.16,1497.93 1563.59,1474.45 1580.45,1457.81C1597.31,1441.18 1621.79,1432.86 1653.89,1432.86C1685.98,1432.86 1710.46,1441.18 1727.32,1457.81C1744.18,1474.45 1752.61,1497.93 1752.61,1528.24L1752.61,1569.28L1689.23,1569.28L1689.23,1524.36C1689.23,1500.33 1678.06,1488.32 1655.72,1488.32C1633.37,1488.32 1622.2,1500.33 1622.2,1524.36L1622.2,1741.19C1622.2,1764.86 1633.37,1776.69 1655.72,1776.69C1678.06,1776.69 1689.23,1764.86 1689.23,1741.19L1689.23,1681.86L1752.61,1681.86L1752.61,1736.76C1752.61,1767.07 1744.18,1790.55 1727.32,1807.19C1710.46,1823.83 1685.98,1832.14 1653.89,1832.14Z" style="fill:rgb(34,34,34);fill-rule:nonzero;"/>
        <path d="M1844.63,1438.4L1935.43,1438.4L2004.9,1826.6L1937.87,1826.6L1925.68,1749.51L1925.68,1750.62L1849.51,1750.62L1837.32,1826.6L1775.16,1826.6L1844.63,1438.4ZM1917.76,1697.94L1887.9,1506.06L1886.68,1506.06L1857.43,1697.94L1917.76,1697.94Z" style="fill:rgb(34,34,34);fill-rule:nonzero;"/>
        <path d="M2130.44,1832.14C2098.35,1832.14 2073.87,1823.83 2057.01,1807.19C2040.15,1790.55 2031.72,1767.07 2031.72,1736.76L2031.72,1528.24C2031.72,1497.93 2040.15,1474.45 2057.01,1457.81C2073.87,1441.18 2098.35,1432.86 2130.44,1432.86C2162.54,1432.86 2187.02,1441.18 2203.88,1457.81C2220.74,1474.45 2229.17,1497.93 2229.17,1528.24L2229.17,1569.28L2165.79,1569.28L2165.79,1524.36C2165.79,1500.33 2154.62,1488.32 2132.27,1488.32C2109.93,1488.32 2098.75,1500.33 2098.75,1524.36L2098.75,1741.19C2098.75,1764.86 2109.93,1776.69 2132.27,1776.69C2154.62,1776.69 2165.79,1764.86 2165.79,1741.19L2165.79,1681.86L2229.17,1681.86L2229.17,1736.76C2229.17,1767.07 2220.74,1790.55 2203.88,1807.19C2187.02,1823.83 2162.54,1832.14 2130.44,1832.14Z" style="fill:rgb(34,34,34);fill-rule:nonzero;"/>
        <rect x="2269.39" y="1438.4" width="67.035" height="388.193" style="fill:rgb(34,34,34);fill-rule:nonzero;"/>
        <path d="M2483.29,1832.14C2450.38,1832.14 2425.19,1823.64 2407.72,1806.63C2390.26,1789.63 2381.52,1765.6 2381.52,1734.54L2381.52,1530.46C2381.52,1499.41 2390.26,1475.38 2407.72,1458.37C2425.19,1441.36 2450.38,1432.86 2483.29,1432.86C2516.2,1432.86 2541.39,1441.36 2558.86,1458.37C2576.33,1475.38 2585.06,1499.41 2585.06,1530.46L2585.06,1734.54C2585.06,1765.6 2576.33,1789.63 2558.86,1806.63C2541.39,1823.64 2516.2,1832.14 2483.29,1832.14ZM2483.29,1776.69C2506.45,1776.69 2518.03,1763.93 2518.03,1738.42L2518.03,1526.58C2518.03,1501.07 2506.45,1488.32 2483.29,1488.32C2460.13,1488.32 2448.55,1501.07 2448.55,1526.58L2448.55,1738.42C2448.55,1763.93 2460.13,1776.69 2483.29,1776.69ZM2489.39,1348.57L2562.51,1348.57L2497.31,1412.34L2446.73,1412.34L2489.39,1348.57Z" style="fill:rgb(34,34,34);fill-rule:nonzero;"/>
        <path d="M2630.16,1438.4L2714.26,1438.4L2779.46,1670.77L2780.68,1670.77L2780.68,1438.4L2840.4,1438.4L2840.4,1826.6L2771.54,1826.6L2691.1,1543.22L2689.88,1543.22L2689.88,1826.6L2630.16,1826.6L2630.16,1438.4Z" style="fill:rgb(34,34,34);fill-rule:nonzero;"/>
        <path d="M2987.88,1438.4L3090.26,1438.4C3123.58,1438.4 3148.56,1446.54 3165.22,1462.81C3181.88,1479.07 3190.2,1502.92 3190.2,1534.34L3190.2,1730.66C3190.2,1762.08 3181.88,1785.93 3165.22,1802.2C3148.56,1818.46 3123.58,1826.6 3090.26,1826.6L2987.88,1826.6L2987.88,1438.4ZM3089.04,1771.14C3100.01,1771.14 3108.44,1768.18 3114.33,1762.27C3120.22,1756.35 3123.17,1746.74 3123.17,1733.43L3123.17,1531.57C3123.17,1518.26 3120.22,1508.65 3114.33,1502.73C3108.44,1496.82 3100.01,1493.86 3089.04,1493.86L3054.92,1493.86L3054.92,1771.14L3089.04,1771.14Z" style="fill:rgb(34,34,34);fill-rule:nonzero;"/>
        <path d="M3235.3,1438.4L3418.12,1438.4L3418.12,1493.86L3302.34,1493.86L3302.34,1596.45L3394.36,1596.45L3394.36,1651.91L3302.34,1651.91L3302.34,1771.14L3418.12,1771.14L3418.12,1826.6L3235.3,1826.6L3235.3,1438.4Z" style="fill:rgb(34,34,34);fill-rule:nonzero;"/>
    </g>
</svg>
